<?xml version="1.0" encoding="utf-8"?>
<!-- Generator: Adobe Illustrator 15.0.0, SVG Export Plug-In . SVG Version: 6.00 Build 0)  -->
<!DOCTYPE svg PUBLIC "-//W3C//DTD SVG 1.1//EN" "http://www.w3.org/Graphics/SVG/1.1/DTD/svg11.dtd">
<svg version="1.1" id="Layer_1" xmlns="http://www.w3.org/2000/svg" xmlns:xlink="http://www.w3.org/1999/xlink" x="0px" y="0px"
	 width="99px" height="99px" viewBox="0 0 504 504" enable-background="new 0 0 504 504" xml:space="preserve">
<g>
	<polygon fill-rule="evenodd" clip-rule="evenodd" fill="#FFFFFF" points="344.448,158.745 251.191,65.484 157.933,158.745 
		251.191,252.001 344.448,158.745 	"/>
</g>
<g>
	<polygon fill-rule="evenodd" clip-rule="evenodd" points="157.743,345.259 251.001,438.517 344.259,345.259 251.002,252.001 
		157.743,345.259 	"/>
</g>
<g>
	<polygon fill-rule="evenodd" clip-rule="evenodd" fill="#66FCF1" points="64.485,252.001 157.743,345.259 251.002,252.001 
		157.743,158.745 64.485,252.001 	"/>
</g>
<g>
	<polygon fill-rule="evenodd" clip-rule="evenodd" fill="#66FCF1" points="437.517,252.001 344.259,158.745 251.002,252.001 
		344.259,345.259 437.517,252.001 	"/>
</g>
<g>
	<path fill="#FFFFFF" d="M302.829,260.122h28.855c1.611,0,2.918,1.306,2.918,2.918v28.854h13.941V263.04
		c0-1.612,1.305-2.918,2.916-2.918h28.855V246.18H351.46c-1.611,0-2.916-1.305-2.916-2.916v-28.854h-13.941v28.854
		c0,1.611-1.307,2.916-2.918,2.916h-28.855V260.122z"/>
</g>
<g>
	<path d="M251.001,444.174L58.828,252.001L251.002,59.827l192.171,192.174L251.001,444.174z M70.142,252.001l180.859,180.858
		l180.858-180.858L251.002,71.142L70.142,252.001z"/>
</g>
<g>
	<g>
		<g>
			<path d="M208.616,254.209H112.87c-2.525,0-4.579-2.054-4.579-4.578v-3.487c0-2.525,2.054-4.58,4.579-4.58h3.509v-3.958
				c0-8.287,2.962-16.366,8.342-22.746c5.313-6.297,12.653-10.58,20.669-12.059l1.736-0.32l3.773,29.715
				c0.464,3.673,2.755,7.593,7.8,7.593h4.088c5.062,0,7.358-3.92,7.82-7.591l3.752-29.717l1.739,0.32
				c8.023,1.477,15.371,5.76,20.686,12.059c5.381,6.377,8.344,14.456,8.344,22.746v3.958h3.488c2.525,0,4.579,2.055,4.579,4.58
				v3.487C213.195,252.155,211.142,254.209,208.616,254.209z M112.87,244.902c-0.684,0-1.24,0.556-1.24,1.241v3.487
				c0,0.683,0.557,1.239,1.24,1.239h95.746c0.684,0,1.24-0.557,1.24-1.239v-3.487c0-0.686-0.557-1.241-1.24-1.241h-6.826v-7.297
				c0-14.867-10.229-27.696-24.565-31.153l-3.304,26.164c-0.373,2.961-1.555,5.52-3.42,7.402c-2.019,2.033-4.686,3.108-7.714,3.108
				h-4.088c-3.021,0-5.681-1.076-7.696-3.112c-1.861-1.88-3.043-4.44-3.416-7.399l-3.322-26.163
				c-14.326,3.459-24.547,16.288-24.547,31.153v7.297H112.87z M162.787,237.329h-4.088c-2.915,0-4.918-2.033-5.357-5.436
				c-0.692-5.491-1.402-11.062-2.089-16.447c-0.64-5.012-1.279-10.022-1.912-15.03c-0.159-1.242,0.08-2.237,0.713-2.957
				c0.608-0.69,1.486-1.041,2.613-1.041h16.174c1.389,0,2.176,0.564,2.592,1.038c0.633,0.72,0.872,1.718,0.711,2.963l-1.014,8.019
				c-0.986,7.812-1.976,15.625-2.964,23.451C167.728,235.296,165.718,237.329,162.787,237.329z M152.634,199.758
				c0.002,0.063,0.007,0.141,0.019,0.235c0.635,5.013,1.273,10.02,1.913,15.03c0.687,5.388,1.397,10.961,2.091,16.446
				c0.324,2.519,1.573,2.519,2.043,2.519h4.088c0.521,0,1.74,0,2.065-2.522c0.989-7.822,1.978-15.635,2.964-23.446l1.017-8.022
				c0.013-0.097,0.018-0.177,0.02-0.239c-0.002,0-0.007,0-0.012,0h-16.174C152.656,199.758,152.644,199.758,152.634,199.758z"/>
			<path d="M208.616,254.709H112.87c-2.801,0-5.079-2.278-5.079-5.078v-3.487c0-2.801,2.278-5.08,5.079-5.08h3.009v-3.458
				c0-8.407,3.004-16.6,8.46-23.068c5.387-6.386,12.831-10.729,20.96-12.229l2.256-0.416l3.84,30.239
				c0.437,3.46,2.584,7.156,7.304,7.156h4.088c4.736,0,6.889-3.695,7.324-7.153l3.818-30.242l2.259,0.416
				c8.138,1.498,15.587,5.841,20.977,12.229c5.457,6.467,8.462,14.659,8.462,23.068v3.458h2.988c2.8,0,5.079,2.279,5.079,5.08v3.487
				C213.695,252.431,211.417,254.709,208.616,254.709z M112.87,242.063c-2.25,0-4.079,1.83-4.079,4.08v3.487
				c0,2.249,1.83,4.078,4.079,4.078h95.746c2.249,0,4.079-1.829,4.079-4.078v-3.487c0-2.25-1.83-4.08-4.079-4.08h-3.988v-4.458
				c0-8.174-2.922-16.137-8.226-22.424c-5.241-6.211-12.483-10.434-20.394-11.889l-1.219-0.225l-3.686,29.191
				c-0.488,3.881-2.93,8.028-8.316,8.028h-4.088c-5.369,0-7.806-4.148-8.296-8.03l-3.707-29.189l-1.216,0.225
				c-7.902,1.457-15.139,5.68-20.377,11.889c-5.303,6.289-8.224,14.253-8.224,22.424v4.458H112.87z M208.616,251.37H112.87
				c-0.96,0-1.74-0.78-1.74-1.739v-3.487c0-0.96,0.78-1.741,1.74-1.741h6.348v-6.797c0-15.085,10.251-28.096,24.929-31.64
				l0.543-0.131l3.393,26.718c0.359,2.851,1.492,5.309,3.275,7.11c1.919,1.938,4.458,2.964,7.341,2.964h4.088
				c2.892,0,5.437-1.023,7.358-2.961c1.786-1.802,2.92-4.262,3.279-7.112l3.374-26.719l0.543,0.131
				c14.689,3.542,24.948,16.553,24.948,31.64v6.797h6.326c0.959,0,1.74,0.781,1.74,1.741v3.487
				C210.356,250.59,209.575,251.37,208.616,251.37z M112.87,245.402c-0.408,0-0.74,0.332-0.74,0.741v3.487
				c0,0.407,0.332,0.739,0.74,0.739h95.746c0.408,0,0.74-0.332,0.74-0.739v-3.487c0-0.409-0.332-0.741-0.74-0.741h-7.326v-7.797
				c0-14.437-9.692-26.912-23.64-30.531l-3.233,25.604c-0.387,3.071-1.618,5.73-3.561,7.691c-2.115,2.131-4.905,3.257-8.069,3.257
				h-4.088c-3.156,0-5.94-1.128-8.052-3.261c-1.939-1.959-3.17-4.617-3.557-7.688l-3.251-25.604
				c-13.937,3.621-23.622,16.097-23.622,30.531v7.797H112.87z M162.787,237.829h-4.088c-3.19,0-5.379-2.195-5.854-5.871
				c-0.662-5.257-1.342-10.585-2-15.754l-0.128-1.008c-0.626-4.907-1.253-9.813-1.872-14.718c-0.179-1.391,0.102-2.518,0.833-3.35
				c0.708-0.804,1.714-1.211,2.989-1.211h16.174c1.575,0,2.483,0.657,2.967,1.208c0.732,0.833,1.012,1.963,0.831,3.357
				l-3.977,31.468C168.188,235.632,165.992,237.829,162.787,237.829z M152.667,196.918c-0.976,0-1.729,0.293-2.238,0.871
				c-0.533,0.606-0.732,1.469-0.592,2.563c0.62,4.904,1.246,9.811,1.873,14.717l0.128,1.009c0.659,5.169,1.338,10.497,2.001,15.753
				c0.404,3.129,2.221,4.998,4.861,4.998h4.088c2.693,0,4.474-1.824,4.883-5.004l3.978-31.469c0.143-1.099-0.057-1.963-0.591-2.57
				c-0.348-0.396-1.015-0.868-2.216-0.868H152.667z M162.787,234.488h-4.088c-1.433,0-2.287-0.994-2.539-2.955
				c-0.619-4.896-1.252-9.862-1.869-14.703l-0.222-1.743c-0.64-5.011-1.278-10.019-1.913-15.031
				c-0.014-0.113-0.02-0.207-0.022-0.282l-0.016-0.516h17.239l-0.004,0.516c-0.002,0.075-0.008,0.172-0.023,0.289l-3.98,31.466
				C164.967,234.488,163.326,234.488,162.787,234.488z M153.19,200.258c0.62,4.903,1.245,9.801,1.871,14.702l0.222,1.743
				c0.617,4.842,1.25,9.808,1.869,14.704c0.268,2.081,1.132,2.081,1.547,2.081h4.088c0.454,0,1.301,0,1.569-2.086l3.939-31.145
				H153.19z"/>
		</g>
	</g>
	<g>
		<path d="M160.813,283.686L160.813,283.686c-1.564,0-2.664,0.463-3.455,1.086c-0.019,0.015-0.033,0.029-0.053,0.047
			c-0.773,0.785-1.397,1.879-1.867,3.125c-0.003,0.009-0.009,0.019-0.012,0.027c-0.792,1.737-2.056,3.63-3.95,4.735
			c-1.425,0.948-3.324,1.423-5.381,0.791h-0.158l-22.297-9.173c-0.01-0.004-0.021-0.01-0.032-0.014
			c-0.571-0.287-0.933-0.871-0.933-1.511v-0.063c0-0.264-0.213-0.475-0.476-0.475h-5.222c-0.875,0-1.584-0.709-1.584-1.584v-11.711
			c0-0.873,0.709-1.582,1.584-1.582h5.38c0.262,0,0.476-0.213,0.476-0.474v-1.582v-0.166c0-0.72,0.535-1.325,1.249-1.414
			c0.011-0.002,0.021-0.004,0.033-0.006c6.323-1.266,12.175-2.214,18.024-2.847c6.012-0.633,12.025-0.949,18.673-0.791
			c6.647-0.158,12.817,0.158,18.673,0.791c6.008,0.633,11.858,1.581,18.182,2.847c0.013,0.002,0.023,0.004,0.034,0.006
			c0.714,0.089,1.249,0.694,1.249,1.414v0.166v1.582c0,0.261,0.213,0.474,0.476,0.474h5.222c0.873,0,1.582,0.709,1.582,1.582l0,0
			v11.711c0,0.875-0.709,1.584-1.582,1.584h-5.064c-0.261,0-0.476,0.211-0.476,0.475c0,0.673-0.398,1.278-1.017,1.543l-0.09,0.039
			l-22.068,9.142c-0.057,0.024-0.119,0.037-0.182,0.037h-0.155c-0.043,0-0.089,0.006-0.132,0.02
			c-2.028,0.604-3.748,0.129-5.314-0.811c-1.732-1.104-3.152-2.989-3.79-4.724c-0.005-0.018-0.014-0.033-0.021-0.048
			c-0.621-1.243-1.246-2.334-2.022-3.118c-0.015-0.017-0.032-0.032-0.05-0.047C163.481,284.148,162.534,283.686,160.813,283.686
			 M155.273,282.577c1.74-1.74,3.322-2.058,5.539-2.058c2.69,0,4.431,0.791,5.696,2.058c1.26,1.101,1.891,2.513,2.677,3.931
			c0.01,0.018,0.017,0.035,0.024,0.053c0.479,1.26,1.424,2.668,2.68,3.453c0.783,0.471,1.721,0.785,2.815,0.485
			c0.022-0.006,0.044-0.013,0.065-0.022l20.721-8.57c0.179-0.074,0.295-0.245,0.295-0.438v-14.482c0-0.228-0.162-0.426-0.388-0.468
			c-5.554-1.066-10.815-1.839-16.229-2.456c-5.854-0.635-11.869-0.951-18.356-0.793c-6.488-0.158-12.502,0.158-18.356,0.793
			c-4.738,0.558-9.477,1.237-14.432,2.146c-1.179,0.219-2.036,1.24-2.049,2.438l-0.112,10.84c-0.015,1.389,0.818,2.646,2.101,3.173
			l19.051,7.817c0.02,0.01,0.04,0.017,0.061,0.022c1.092,0.3,1.877-0.013,2.66-0.485c1.266-0.788,2.216-2.215,2.848-3.48
			C153.216,285.109,154.007,283.686,155.273,282.577 M201.525,270.708h-0.878c-0.85,0-1.54,0.688-1.54,1.539v5.311
			c0,0.85,0.69,1.538,1.54,1.538h0.878c0.851,0,1.54-0.688,1.54-1.538v-5.311C203.065,271.396,202.376,270.708,201.525,270.708
			 M121.241,270.708h-1.091c-0.878,0-1.591,0.712-1.591,1.592v5.361c0,0.792,0.642,1.435,1.434,1.435h1.248
			c0.792,0,1.434-0.643,1.434-1.435v-5.518C122.675,271.353,122.033,270.708,121.241,270.708"/>
		<path d="M173.681,294.285c-1.259,0-2.498-0.376-3.789-1.15c-1.753-1.116-3.283-3.022-4.001-4.979
			c-0.518-1.035-1.153-2.202-1.93-2.987c-0.646-0.514-1.47-0.982-3.148-0.982c-1.263,0-2.321,0.329-3.146,0.979
			c-0.688,0.697-1.295,1.718-1.762,2.956c-0.743,1.635-2.047,3.774-4.178,5.018c-1.665,1.109-3.743,1.438-5.707,0.859l-0.274-0.037
			l-22.297-9.174c-0.812-0.403-1.274-1.153-1.274-1.986l-5.197-0.038c-1.149,0-2.084-0.935-2.084-2.084v-11.711
			c0-1.148,0.935-2.082,2.084-2.082h5.38l-0.024-1.722c0-0.97,0.725-1.79,1.687-1.91c6.664-1.335,12.406-2.241,18.066-2.854
			c5.333-0.562,10.356-0.834,15.357-0.834c1.11,0,2.236,0.013,3.381,0.04c6.27-0.152,12.39,0.11,18.715,0.794
			c5.716,0.602,11.508,1.509,18.226,2.854c0.96,0.12,1.686,0.94,1.686,1.91v1.748l5.197-0.026c1.147,0,2.082,0.934,2.082,2.082
			v11.711c0,1.149-0.935,2.084-2.082,2.084h-5.064c0.024,0.848-0.494,1.634-1.296,1.978l-0.095,0.041l-22.068,9.142
			c-0.112,0.048-0.243,0.075-0.373,0.075h-0.155C174.961,294.188,174.313,294.285,173.681,294.285z M160.813,283.186
			c1.989,0,3.019,0.603,3.764,1.191l0.109,0.103c0.859,0.868,1.518,2.067,2.1,3.231l0.052,0.125c0.629,1.71,2.037,3.466,3.58,4.448
			c1.679,1.008,3.243,1.249,4.903,0.753c0.081-0.025,0.176-0.04,0.274-0.04h0.155l22.059-9.141c0.518-0.223,0.798-0.647,0.798-1.12
			c0-0.537,0.438-0.975,0.976-0.975h5.064c0.597,0,1.082-0.486,1.082-1.084v-11.711c0-0.597-0.485-1.082-1.082-1.082h-5.222
			c-0.538,0-0.976-0.437-0.976-0.974v-1.748c0-0.466-0.349-0.86-0.811-0.918c-6.758-1.351-12.521-2.253-18.207-2.852
			c-6.283-0.68-12.252-0.941-18.608-0.788c-1.161-0.027-2.278-0.04-3.381-0.04c-4.966,0-9.954,0.271-15.252,0.828
			c-5.628,0.609-11.341,1.512-17.979,2.84c-0.531,0.069-0.88,0.464-0.88,0.93v1.748c0,0.537-0.438,0.974-0.976,0.974h-5.38
			c-0.598,0-1.084,0.485-1.084,1.082v11.711c0,0.598,0.486,1.084,1.084,1.084h5.222c0.538,0,0.976,0.438,0.976,0.975
			c0,0.516,0.252,0.924,0.657,1.127l22.409,9.156c1.7,0.521,3.481,0.251,4.957-0.729c1.929-1.127,3.114-3.082,3.772-4.526
			c0.521-1.385,1.188-2.494,1.978-3.296l0.104-0.093C158.053,283.587,159.319,283.186,160.813,283.186z M147.904,291.117
			L147.904,291.117c-0.311,0-0.634-0.046-0.962-0.136l-0.151-0.058l-19.017-7.802c-1.482-0.609-2.428-2.039-2.411-3.641l0.112-10.84
			c0.015-1.433,1.049-2.663,2.457-2.924c4.595-0.844,9.325-1.547,14.465-2.151c5.194-0.563,10.137-0.837,15.117-0.837
			c1.09,0,2.194,0.013,3.31,0.04c6.079-0.152,12.072,0.11,18.398,0.796c5.79,0.66,10.958,1.442,16.27,2.462
			c0.459,0.086,0.794,0.489,0.794,0.959v14.482c0,0.395-0.237,0.747-0.604,0.899l-20.852,8.614c-1.043,0.289-2.107,0.115-3.199-0.54
			c-1.22-0.763-2.298-2.146-2.89-3.704c-0.121-0.217-0.243-0.444-0.365-0.671c-0.621-1.156-1.207-2.249-2.197-3.113
			c-1.328-1.327-3.025-1.935-5.367-1.935c-2.124,0-3.579,0.305-5.186,1.911c-1.303,1.142-2.065,2.632-2.587,3.806
			c-0.603,1.208-1.61,2.811-3.04,3.702C149.44,290.775,148.76,291.117,147.904,291.117z M157.514,263.729
			c-4.943,0-9.851,0.271-15.004,0.83c-5.113,0.602-9.823,1.303-14.396,2.142c-0.939,0.174-1.629,0.994-1.639,1.95l-0.112,10.84
			c-0.013,1.191,0.69,2.253,1.791,2.705l19.05,7.817c0.923,0.262,1.647-0.052,2.272-0.428c1.227-0.764,2.123-2.203,2.659-3.276
			c0.553-1.247,1.383-2.861,2.808-4.108c1.819-1.821,3.532-2.182,5.869-2.182c2.589,0,4.567,0.721,6.05,2.204
			c1.103,0.962,1.76,2.187,2.396,3.37c0.12,0.223,0.24,0.447,0.365,0.672l0.044,0.092c0.41,1.077,1.27,2.471,2.488,3.232
			c0.843,0.506,1.621,0.646,2.418,0.427l20.727-8.572l-0.014-14.458c-5.268-0.992-10.413-1.771-16.174-2.427
			c-5.151-0.559-10.059-0.83-15.002-0.83c-1.083,0-2.178,0.013-3.286,0.04C159.692,263.742,158.596,263.729,157.514,263.729z
			 M201.525,279.596h-0.878c-1.125,0-2.04-0.914-2.04-2.038v-5.311c0-1.124,0.915-2.039,2.04-2.039h0.878
			c1.125,0,2.04,0.915,2.04,2.039v5.311C203.565,278.682,202.65,279.596,201.525,279.596z M200.647,271.208
			c-0.573,0-1.04,0.466-1.04,1.039v5.311c0,0.572,0.467,1.038,1.04,1.038h0.878c0.573,0,1.04-0.466,1.04-1.038v-5.311
			c0-0.573-0.467-1.039-1.04-1.039H200.647z M121.241,279.596h-1.248c-1.066,0-1.934-0.868-1.934-1.935V272.3
			c0-1.153,0.938-2.092,2.091-2.092h1.091c1.066,0,1.934,0.868,1.934,1.936v5.518C123.175,278.728,122.307,279.596,121.241,279.596z
			 M120.15,271.208c-0.602,0-1.091,0.49-1.091,1.092v5.361c0,0.516,0.418,0.935,0.934,0.935h1.248c0.515,0,0.934-0.419,0.934-0.935
			v-5.518c0-0.516-0.419-0.936-0.934-0.936H120.15z"/>
	</g>
</g>
<g>
	<g>
		<path d="M382.463,266.618h-27.255v-3.873h27.255c0.668,0,1.275-0.592,1.275-1.241v-17.007c0-0.238-0.055-0.573-0.322-0.826
			l-0.078-0.079c-0.262-0.277-0.621-0.336-0.875-0.336h-31.273V212.51c0-0.648-0.608-1.239-1.276-1.239h-17.309
			c-0.668,0-1.276,0.591-1.276,1.239v21.516h-3.873V212.51c0-2.771,2.357-5.113,5.149-5.113h17.309c2.792,0,5.149,2.342,5.149,5.113
			v26.873h27.4c1.42,0,2.716,0.537,3.656,1.514c0.963,0.933,1.494,2.209,1.494,3.601v17.007
			C387.613,264.275,385.254,266.618,382.463,266.618z"/>
	</g>
</g>
<g>
	<g>
		<path d="M349.913,298.604h-17.309c-2.791,0-5.149-2.342-5.149-5.113v-26.872h-27.4c-2.791,0-5.148-2.341-5.148-5.114v-17.007
			c0-2.771,2.357-5.114,5.148-5.114h26.21c1.069,0,1.937,0.867,1.937,1.936c0,1.07-0.867,1.938-1.937,1.938h-26.21
			c-0.668,0-1.275,0.591-1.275,1.241v17.007c0,0.649,0.607,1.241,1.275,1.241h31.273v30.745c0,0.648,0.608,1.24,1.276,1.24h17.309
			c0.366,0,0.647-0.105,0.858-0.321l0.082-0.078c0.277-0.254,0.336-0.597,0.336-0.841v-22.215c0-1.069,0.867-1.938,1.938-1.938
			c1.068,0,1.936,0.868,1.936,1.938v22.215c0,1.43-0.555,2.73-1.563,3.669C352.566,298.091,351.295,298.604,349.913,298.604z"/>
	</g>
</g>
<g>
	<path d="M341.299,309.65c-31.565,0-57.245-25.681-57.245-57.246s25.68-57.245,57.245-57.245s57.246,25.68,57.246,57.245
		S372.864,309.65,341.299,309.65z M341.299,199.659c-29.084,0-52.745,23.661-52.745,52.745s23.661,52.746,52.745,52.746
		s52.746-23.662,52.746-52.746S370.383,199.659,341.299,199.659z"/>
</g>
<g>
	<g>
		<path fill="#D0D2D3" d="M257.479,351.778c0.002-0.001,0.004-0.001,0.005,0c4.429,4.711,8.78,9.508,12.529,14.313
			c5.822,7.463,12.937,17.363,16.31,27.789c0.098,0.303,0.15,0.609,0.168,0.914l-0.005,0.004h-7.616l-0.004-0.003
			c-3.195-8.866-9.459-17.534-14.646-24.182c-3.527-4.519-7.542-8.961-11.822-13.518v-0.007L257.479,351.778z"/>
	</g>
	<g>
		<path fill="#D0D2D3" d="M222.308,294.409c0.288-0.009,0.521,0.229,0.51,0.518v0.004c-0.036,0.941-0.036,1.881,0.005,2.818
			c0.149,3.553,0.863,7.105,2.154,10.781c1.487,4.234,3.713,8.54,6.805,13.165c4.763,7.126,11.008,14.087,17.393,20.868
			c0.361,0.385,0.36,0.986-0.006,1.367l-3.713,3.881c-0.393,0.41-1.051,0.409-1.441-0.005c-6.662-7.07-13.223-14.365-18.344-22.026
			c-6.604-9.878-9.959-19.192-10.214-28.383c-0.021-0.766-0.02-1.529,0.001-2.295c0.009-0.26,0.22-0.471,0.48-0.479L222.308,294.409
			z"/>
	</g>
	<g>
		<path fill="#D0D2D3" d="M265.699,390.03h-12.156c-1.455,0-2.635-1.18-2.635-2.635c0-1.456,1.18-2.635,2.635-2.635h12.156
			c1.455,0,2.635,1.179,2.635,2.635C268.334,388.851,267.154,390.03,265.699,390.03"/>
	</g>
	<g>
		<path fill="#D0D2D3" d="M261.699,381.111h-7.617c-1.455,0-2.635-1.179-2.635-2.635s1.18-2.636,2.635-2.636h7.617
			c1.455,0,2.635,1.18,2.635,2.636S263.154,381.111,261.699,381.111"/>
	</g>
	<g>
		<path fill="#D0D2D3" d="M242.828,330.091L242.828,330.091c0-1.454,1.18-2.635,2.635-2.635h3.615c1.455,0,2.635,1.181,2.635,2.635
			c0,1.457-1.18,2.636-2.635,2.636h-3.615C244.008,332.727,242.828,331.548,242.828,330.091"/>
	</g>
	<g>
		<path fill="#D0D2D3" d="M228.555,302.438L228.555,302.438c0-1.456,1.179-2.635,2.635-2.635h18.174
			c1.454,0,2.634,1.179,2.634,2.635c0,1.455-1.18,2.635-2.634,2.635h-18.174C229.733,305.073,228.555,303.894,228.555,302.438"/>
	</g>
	<g>
		<path fill="#D0D2D3" d="M231.398,311.568L231.398,311.568c0-1.456,1.18-2.636,2.635-2.636h15.045c1.455,0,2.635,1.18,2.635,2.636
			c0,1.457-1.18,2.635-2.635,2.635h-15.045C232.578,314.203,231.398,313.025,231.398,311.568"/>
	</g>
	<g>
		<path fill="#D0D2D3" d="M235.86,320.829L235.86,320.829c0-1.455,1.182-2.635,2.637-2.635h10.581c1.455,0,2.635,1.18,2.635,2.635
			s-1.18,2.636-2.635,2.636h-10.581C237.042,323.465,235.86,322.284,235.86,320.829"/>
	</g>
	<g>
		<path fill="#FFFFFF" d="M286.322,295.127c0.117,0.004,0.213,0.099,0.216,0.216c0.344,9.851-2.94,19.799-10.032,30.41
			c-5.307,7.938-12.182,15.476-19.094,22.777l-6.369,6.713c-0.001-0.002-0.002-0.004-0.004-0.006
			c-0.594,0.627-1.185,1.252-1.769,1.875l-0.01,0.01l0,0c-4.188,4.46-8.118,8.811-11.569,13.233
			c-5.012,6.422-11.045,14.76-14.234,23.318c-0.103,0.276-0.364,0.461-0.66,0.461h-6.168c-0.467,0-0.816-0.448-0.674-0.892
			l0.003-0.009c3.316-10.253,10.312-19.989,16.036-27.325c3.85-4.934,8.344-9.859,12.896-14.687l6.146-6.478l0.003,0.004
			c0.645-0.679,1.289-1.359,1.932-2.042l0.162-0.171l0,0c6.369-6.758,12.615-13.695,17.365-20.799
			c3.039-4.546,5.227-8.781,6.689-12.943c1.604-4.571,2.299-8.945,2.122-13.371c-0.005-0.098-0.009-0.195-0.013-0.293
			c-0.006-0.13,0.099-0.236,0.229-0.232L286.322,295.127z"/>
	</g>
	<g>
		<path fill="#FFFFFF" d="M234.296,387.249L234.296,387.249c0-1.431,1.16-2.592,2.591-2.592h12.23c1.432,0,2.59,1.161,2.59,2.592
			c0,1.43-1.158,2.59-2.59,2.59h-12.23C235.456,389.839,234.296,388.679,234.296,387.249"/>
	</g>
	<g>
		<path fill="#FFFFFF" d="M238.76,378.478L238.76,378.478c0-1.43,1.16-2.59,2.592-2.59h7.766c1.432,0,2.59,1.16,2.59,2.59
			c0,1.432-1.158,2.593-2.59,2.593h-7.766C239.92,381.07,238.76,379.909,238.76,378.478"/>
	</g>
	<g>
		<path fill="#D0D2D3" d="M251.051,369.743L251.051,369.743c0-1.455,1.179-2.634,2.635-2.634h3.614c1.456,0,2.636,1.179,2.636,2.634
			c0,1.456-1.18,2.636-2.636,2.636h-3.614C252.229,372.379,251.051,371.199,251.051,369.743"/>
	</g>
	<g>
		<path fill="#FFFFFF" d="M256.515,332.583h-3.276c-1.431,0-2.592-1.16-2.592-2.59v-0.002c0-1.43,1.161-2.589,2.592-2.589h3.276
			c1.431,0,2.591,1.159,2.591,2.589v0.002C259.105,331.423,257.945,332.583,256.515,332.583"/>
	</g>
	<g>
		<path fill="#FFFFFF" d="M270.828,305.263h-17.59c-1.431,0-2.592-1.16-2.592-2.591l0,0c0-1.431,1.161-2.591,2.592-2.591h17.59
			c1.432,0,2.591,1.16,2.591,2.591l0,0C273.419,304.103,272.26,305.263,270.828,305.263"/>
	</g>
	<g>
		<path fill="#FFFFFF" d="M267.752,314.37h-14.514c-1.431,0-2.592-1.16-2.592-2.591s1.161-2.591,2.592-2.591h14.514
			c1.431,0,2.592,1.16,2.592,2.591S269.183,314.37,267.752,314.37"/>
	</g>
	<g>
		<path fill="#FFFFFF" d="M263.363,323.476h-10.125c-1.431,0-2.592-1.159-2.592-2.59c0-1.43,1.161-2.592,2.592-2.592h10.125
			c1.432,0,2.591,1.162,2.591,2.592C265.954,322.316,264.795,323.476,263.363,323.476"/>
	</g>
	<g>
		<path fill="#FFFFFF" d="M249.618,372.368h-3.276c-1.431,0-2.592-1.16-2.592-2.591l0,0c0-1.433,1.161-2.592,2.592-2.592h3.276
			c1.431,0,2.591,1.159,2.591,2.592l0,0C252.209,371.208,251.049,372.368,249.618,372.368"/>
	</g>
</g>
<g>
	<polygon points="251.742,104.047 252.072,171.246 254.515,174.978 258.032,176.378 262.125,176.094 264.455,173.456 
		266.26,169.954 269.724,168.585 271.666,165.087 272.406,161.583 277.26,160.355 279.323,157.932 280.998,154.582 280.998,150.373 
		279.628,147.677 283.586,146.973 286.783,144.536 288.401,141.644 288.401,138.858 284.956,133.909 288.401,132.349 
		289.649,129.314 290.435,125.872 289.649,122.464 286.326,120.337 287.46,116.74 286.631,113.486 284.499,111.271 280.998,109.681 
		279.323,109.528 278.41,106.181 277.26,103.286 273.731,101.005 269.967,100.396 265.016,101.46 263.459,98.999 258.855,97.81 
		254.818,98.999 251.742,101.614 	"/>
</g>
<g>
	<g>
		<g>
			<path fill="#FFFFFF" d="M258.855,177.728c-4.232,0-7.732-3.307-7.971-7.526c-0.009-0.152-0.012-0.305-0.012-0.452
				c0-0.666,0.537-1.202,1.199-1.202c0.664,0,1.201,0.536,1.201,1.202c0,0.105,0.003,0.211,0.009,0.321
				c0.166,2.946,2.614,5.257,5.573,5.257c3.077,0,5.582-2.505,5.582-5.578c0-0.447-0.053-0.883-0.154-1.305
				c-0.153-0.648,0.243-1.294,0.887-1.449c0.645-0.155,1.295,0.24,1.448,0.887c0.146,0.604,0.22,1.234,0.22,1.867
				C266.838,174.147,263.256,177.728,258.855,177.728z"/>
		</g>
	</g>
	<g>
		<g>
			<path fill="#FFFFFF" d="M281.666,148.313c-1.869,0-3.687-0.657-5.119-1.854c-0.509-0.43-0.576-1.186-0.15-1.693
				c0.425-0.508,1.183-0.577,1.692-0.15c1,0.836,2.269,1.297,3.577,1.297c3.078,0,5.58-2.502,5.58-5.578
				c0-3.08-2.502-5.585-5.58-5.585c-0.66,0-1.2-0.534-1.2-1.198c0-0.665,0.54-1.201,1.2-1.201c4.401,0,7.983,3.581,7.983,7.984
				C289.649,144.733,286.067,148.313,281.666,148.313z"/>
		</g>
	</g>
	<g>
		<g>
			<path fill="#FFFFFF" d="M276.302,138.858c-1.537,0-3.03-0.54-4.204-1.523c-0.51-0.428-0.579-1.185-0.151-1.689
				c0.426-0.512,1.183-0.578,1.691-0.152c0.744,0.623,1.688,0.965,2.664,0.965c2.289,0,4.15-1.861,4.15-4.154
				c0-2.289-1.861-4.152-4.15-4.152c-0.665,0-1.201-0.538-1.201-1.199c0-0.662,0.536-1.202,1.201-1.202
				c3.612,0,6.552,2.94,6.552,6.554C282.854,135.919,279.914,138.858,276.302,138.858z"/>
		</g>
	</g>
	<g>
		<g>
			<path fill="#FFFFFF" d="M284.068,135.109c-0.662,0-1.201-0.539-1.201-1.203c0-0.663,0.539-1.202,1.201-1.202
				c3.076,0,5.581-2.503,5.581-5.58c0-2.329-1.467-4.434-3.652-5.24c-0.621-0.229-0.94-0.92-0.712-1.541
				c0.229-0.625,0.921-0.941,1.543-0.71c3.123,1.149,5.224,4.161,5.224,7.491C292.052,131.526,288.47,135.109,284.068,135.109z"/>
		</g>
	</g>
	<g>
		<g>
			<path fill="#FFFFFF" d="M280.766,124.604c-3.28,0-6.188-1.967-7.407-5.007c-1.57-3.914-4.365-5.205-8.305-3.838
				c-0.625,0.219-1.311-0.113-1.528-0.738c-0.217-0.626,0.113-1.309,0.74-1.531c5.147-1.785,9.274,0.115,11.32,5.215
				c0.854,2.123,2.885,3.498,5.18,3.498c3.079,0,5.582-2.504,5.582-5.584c0-3.076-2.503-5.578-5.582-5.578
				c-1.435,0-2.798,0.541-3.837,1.525c-0.481,0.459-1.241,0.438-1.698-0.043c-0.457-0.482-0.436-1.24,0.045-1.697
				c1.488-1.412,3.438-2.189,5.49-2.189c4.402,0,7.984,3.579,7.984,7.982S285.168,124.604,280.766,124.604z"/>
		</g>
	</g>
	<g>
		<g>
			<path fill="#FFFFFF" d="M261.742,163.642c-1.021,0-2.013-0.189-2.953-0.563c-0.616-0.247-0.916-0.946-0.671-1.562
				s0.943-0.914,1.561-0.672c0.655,0.262,1.349,0.396,2.063,0.396c3.078,0,5.58-2.506,5.58-5.586c0-3.073-2.502-5.581-5.58-5.581
				c-0.665,0-1.2-0.534-1.2-1.198c0-0.666,0.535-1.199,1.2-1.199c4.401,0,7.981,3.58,7.981,7.979
				C269.724,160.06,266.144,163.642,261.742,163.642z"/>
		</g>
	</g>
	<g>
		<g>
			<path fill="#FFFFFF" d="M265.645,171.443c-0.664,0-1.203-0.535-1.203-1.198c0-0.665,0.539-1.201,1.203-1.201
				c3.076,0,5.582-2.503,5.582-5.582c0-2.23-1.324-4.242-3.371-5.127c-0.609-0.264-0.89-0.969-0.626-1.58
				c0.263-0.607,0.97-0.887,1.578-0.623c2.927,1.264,4.819,4.143,4.819,7.33C273.627,167.864,270.045,171.443,265.645,171.443z"/>
		</g>
	</g>
	<g>
		<g>
			<path fill="#FFFFFF" d="M279.016,111.271c-0.075,0-0.15-0.006-0.225-0.021c-0.65-0.121-1.079-0.752-0.958-1.398
				c0.083-0.436,0.123-0.883,0.123-1.328c0-3.928-3.195-7.125-7.124-7.125c-1.627,0-3.158,0.535-4.431,1.545
				c-0.519,0.412-1.273,0.324-1.686-0.193c-0.412-0.519-0.326-1.273,0.191-1.686c1.701-1.352,3.75-2.066,5.925-2.066
				c5.254,0,9.524,4.273,9.524,9.525c0,0.596-0.055,1.189-0.164,1.77C280.085,110.871,279.58,111.271,279.016,111.271z"/>
		</g>
	</g>
	<g>
		<g>
			<path fill="#FFFFFF" d="M272.563,162.666c-0.141,0-0.283-0.003-0.426-0.009c-0.661-0.029-1.178-0.59-1.149-1.254
				c0.027-0.659,0.597-1.179,1.251-1.145c2.596,0.104,5.021-1.107,6.481-3.258c1.121-1.646,1.533-3.633,1.16-5.583
				c-0.372-1.959-1.483-3.649-3.129-4.772c-2.598-1.764-6.047-1.709-8.583,0.137c-0.536,0.395-1.286,0.275-1.678-0.258
				c-0.391-0.54-0.273-1.289,0.263-1.681c3.354-2.444,7.914-2.52,11.349-0.181c2.176,1.479,3.646,3.722,4.138,6.303
				c0.492,2.589-0.052,5.211-1.533,7.39C278.857,161.072,275.838,162.666,272.563,162.666z"/>
		</g>
	</g>
	<g>
		<g>
			<path fill="#FFFFFF" d="M252.072,171.246c-0.662,0-1.199-0.538-1.199-1.202c0-0.658,0.003-66.072,0.021-66.311
				c0.298-4.154,3.794-7.403,7.962-7.403c4.4,0,7.982,3.581,7.982,7.983c0,0.662-0.537,1.199-1.201,1.199
				c-0.662,0-1.199-0.537-1.199-1.199c0-3.078-2.505-5.582-5.582-5.582c-2.902,0-5.341,2.253-5.565,5.141
				c-0.009,1.719-0.017,65.531-0.017,66.172C253.273,170.708,252.736,171.246,252.072,171.246z"/>
		</g>
	</g>
</g>
<g>
	<polygon points="249.675,104.047 249.345,171.246 246.903,174.978 243.385,176.378 239.292,176.094 236.962,173.456 
		235.157,169.954 231.692,168.585 229.751,165.087 229.011,161.583 224.155,160.355 222.094,157.932 220.419,154.582 
		220.419,150.373 221.789,147.677 217.83,146.973 214.634,144.536 213.016,141.644 213.016,138.858 216.461,133.909 
		213.016,132.349 211.766,129.314 210.98,125.872 211.766,122.464 215.091,120.337 213.957,116.74 214.786,113.486 216.916,111.271 
		220.419,109.681 222.094,109.528 223.006,106.181 224.155,103.286 227.686,101.005 231.45,100.396 236.4,101.46 237.957,98.999 
		242.56,97.81 246.597,98.999 249.675,101.614 	"/>
</g>
<g>
	<g>
		<g>
			<path fill="#FFFFFF" d="M243.139,177.85c-4.402,0-7.983-3.582-7.983-7.979c0-0.636,0.074-1.26,0.221-1.867
				c0.153-0.644,0.803-1.044,1.447-0.887c0.644,0.153,1.04,0.803,0.886,1.447c-0.102,0.424-0.153,0.859-0.153,1.307
				c0,3.076,2.505,5.579,5.583,5.579c2.958,0,5.407-2.312,5.573-5.263c0.005-0.104,0.009-0.209,0.009-0.316
				c0-0.664,0.537-1.205,1.2-1.205s1.2,0.541,1.2,1.205c0,0.148-0.004,0.299-0.012,0.45
				C250.872,174.544,247.369,177.85,243.139,177.85z"/>
		</g>
	</g>
	<g>
		<g>
			<path fill="#FFFFFF" d="M220.327,148.437c-4.402,0-7.983-3.582-7.983-7.984c0-4.4,3.581-7.985,7.983-7.985
				c0.661,0,1.199,0.54,1.199,1.203s-0.538,1.202-1.199,1.202c-3.078,0-5.58,2.5-5.58,5.58s2.502,5.583,5.58,5.583
				c1.306,0,2.579-0.463,3.58-1.299c0.508-0.429,1.265-0.36,1.691,0.149c0.425,0.506,0.358,1.264-0.152,1.691
				C224.015,147.776,222.196,148.437,220.327,148.437z"/>
		</g>
	</g>
	<g>
		<g>
			<path fill="#FFFFFF" d="M225.692,138.981c-3.613,0-6.553-2.938-6.553-6.557c0-3.613,2.939-6.553,6.553-6.553
				c0.665,0,1.202,0.539,1.202,1.201c0,0.66-0.537,1.199-1.202,1.199c-2.29,0-4.152,1.866-4.152,4.152
				c0,2.291,1.862,4.152,4.152,4.152c0.974,0,1.918-0.342,2.663-0.964c0.509-0.427,1.268-0.356,1.692,0.151
				c0.426,0.51,0.357,1.262-0.15,1.691C228.721,138.438,227.229,138.981,225.692,138.981z"/>
		</g>
	</g>
	<g>
		<g>
			<path fill="#FFFFFF" d="M217.925,135.229c-4.4,0-7.982-3.584-7.982-7.984c0-3.332,2.101-6.343,5.224-7.49
				c0.62-0.23,1.313,0.087,1.543,0.709c0.228,0.623-0.09,1.314-0.713,1.541c-2.186,0.807-3.652,2.912-3.652,5.24
				c0,3.076,2.505,5.582,5.581,5.582c0.664,0,1.202,0.537,1.202,1.201C219.127,134.691,218.589,135.229,217.925,135.229z"/>
		</g>
	</g>
	<g>
		<g>
			<path fill="#FFFFFF" d="M221.227,124.722c-4.4,0-7.982-3.578-7.982-7.981s3.582-7.985,7.982-7.985
				c2.053,0,4.003,0.779,5.49,2.189c0.482,0.458,0.503,1.219,0.047,1.697c-0.457,0.482-1.216,0.502-1.698,0.047
				c-1.041-0.987-2.405-1.53-3.839-1.53c-3.077,0-5.581,2.503-5.581,5.582c0,3.077,2.504,5.581,5.581,5.581
				c2.295,0,4.328-1.373,5.18-3.497c2.045-5.101,6.173-7.001,11.322-5.212c0.626,0.219,0.956,0.901,0.738,1.528
				c-0.216,0.624-0.9,0.955-1.527,0.741c-3.939-1.371-6.733-0.079-8.302,3.836C227.415,122.757,224.507,124.722,221.227,124.722z"/>
		</g>
	</g>
	<g>
		<g>
			<path fill="#FFFFFF" d="M240.251,163.761c-4.401,0-7.98-3.58-7.98-7.982s3.579-7.981,7.98-7.981c0.663,0,1.201,0.536,1.201,1.198
				c0,0.664-0.538,1.204-1.201,1.204c-3.077,0-5.58,2.503-5.58,5.579c0,3.079,2.503,5.583,5.58,5.583
				c0.714,0,1.409-0.132,2.065-0.394c0.615-0.246,1.313,0.055,1.56,0.67c0.244,0.616-0.055,1.313-0.67,1.56
				C242.266,163.571,241.271,163.761,240.251,163.761z"/>
		</g>
	</g>
	<g>
		<g>
			<path fill="#FFFFFF" d="M236.35,171.565c-4.401,0-7.982-3.579-7.982-7.982c0-3.188,1.893-6.066,4.818-7.33
				c0.609-0.266,1.315,0.019,1.579,0.625c0.263,0.609-0.018,1.314-0.625,1.579c-2.048,0.886-3.372,2.897-3.372,5.126
				c0,3.08,2.504,5.582,5.582,5.582c0.665,0,1.202,0.537,1.202,1.201C237.552,171.028,237.015,171.565,236.35,171.565z"/>
		</g>
	</g>
	<g>
		<g>
			<path fill="#FFFFFF" d="M222.979,111.394c-0.565,0-1.069-0.4-1.179-0.979c-0.108-0.578-0.164-1.174-0.164-1.771
				c0-5.253,4.273-9.526,9.527-9.526c2.142,0,4.246,0.737,5.923,2.066c0.52,0.412,0.604,1.168,0.192,1.688
				c-0.413,0.52-1.17,0.604-1.688,0.193c-1.272-1.01-2.803-1.545-4.428-1.545c-3.931,0-7.126,3.197-7.126,7.124
				c0,0.446,0.04,0.893,0.123,1.327c0.122,0.649-0.307,1.277-0.956,1.4C223.127,111.39,223.051,111.394,222.979,111.394z"/>
		</g>
	</g>
	<g>
		<g>
			<path fill="#FFFFFF" d="M229.43,162.786c-3.272,0-6.293-1.59-8.144-4.312c-1.481-2.175-2.025-4.798-1.534-7.388
				c0.493-2.583,1.963-4.822,4.14-6.305c3.433-2.335,7.992-2.261,11.348,0.184c0.536,0.389,0.654,1.141,0.263,1.678
				c-0.389,0.535-1.139,0.656-1.676,0.264c-2.539-1.849-5.987-1.906-8.585-0.137c-1.646,1.118-2.758,2.811-3.13,4.767
				c-0.371,1.955,0.041,3.942,1.16,5.587c1.461,2.146,3.884,3.357,6.483,3.258c0.662-0.041,1.224,0.482,1.25,1.146
				c0.028,0.662-0.486,1.219-1.148,1.248C229.714,162.784,229.57,162.786,229.43,162.786z"/>
		</g>
	</g>
	<g>
		<g>
			<path fill="#FFFFFF" d="M249.921,171.368c-0.663,0-1.2-0.54-1.2-1.201c0-0.645-0.007-64.451-0.018-66.176
				c-0.224-2.882-2.661-5.141-5.564-5.141c-3.078,0-5.583,2.507-5.583,5.584c0,0.663-0.535,1.2-1.2,1.2c-0.662,0-1.2-0.537-1.2-1.2
				c0-4.402,3.581-7.982,7.983-7.982c4.167,0,7.663,3.25,7.962,7.403c0.017,0.235,0.021,65.651,0.021,66.312
				C251.121,170.828,250.584,171.368,249.921,171.368z"/>
		</g>
	</g>
</g>
<g>
	<g>
		<path fill="#FFFFFF" d="M213.083,168.067l-0.625,2.313l-4.25-4.75l-0.75-4.25c0,0-2.313-7.75-2.438-7.938s-2.621-1.25-2.621-1.25
			l-1.754,0.832v5.62l-1.563-1.89l-2.25-2.688l-2,0.125l-1.313,1.449l1.688,8.738l-4.5-3.625l-2.313-0.5l-0.813,2.274l5.112,10.351
			l2.763,4.711l9.875,7.664l15.125,5.5l4.313,15.625l0.688,7.813l0.625,5.438h3.313l17.188-2.529l1.563-2.033l-2.063-4.625
			l-10.125-22.25c0,0-1.488-6.625-1.275-6.813s-1.537-5.875-1.537-5.875l-5.544-2.75l-7.081-2l-3.188-4.427l-0.438-4.698
			l-0.125-5.25c0,0-2.125-2.5-2.313-2.5s-1.438-0.438-1.438-0.438l-0.875,3.938l0.125,7.188L213.083,168.067z"/>
	</g>
	<g>
		<g>
			<g>
				<path d="M225.896,221.412c-0.539,0-0.997-0.412-1.043-0.958c-0.015-0.167-1.421-16.639-2.099-20.354
					c-0.843-4.618-2.476-8.522-3.371-8.928c-0.684-0.308-3.482-1.247-6.191-2.157c-4.582-1.533-7.654-2.574-8.575-3.052
					c-1.699-0.872-11.126-9.143-11.803-10.569c-0.195-0.41-0.764-1.504-1.482-2.885c-5.364-10.326-5.272-10.572-5.027-11.221
					c0.261-0.697,0.845-1.301,1.557-1.617c0.603-0.266,1.612-0.468,2.998,0.082c2.395,0.947,7.765,7.03,8.764,10.421
					c0.164,0.556,0.409,1.083,0.575,1.412c2.616,0.812,5.422,1.663,5.793,1.747c0.557,0.098,0.938,0.619,0.859,1.182
					c-0.083,0.572-0.613,0.974-1.187,0.889c-0.292-0.039-2.479-0.693-6.498-1.94l-0.389-0.122l-0.205-0.349
					c-0.025-0.044-0.618-1.059-0.96-2.226c-0.849-2.883-5.845-8.397-7.525-9.064c-0.564-0.225-1.04-0.262-1.376-0.117
					c-0.144,0.065-0.248,0.158-0.322,0.244c0.51,1.443,3.381,6.967,4.805,9.713c0.72,1.381,1.288,2.476,1.507,2.934
					c0.732,1.18,9.437,8.883,10.876,9.623c0.848,0.439,4.97,1.82,8.282,2.93c3.012,1.009,5.612,1.879,6.392,2.233
					c2.864,1.296,4.499,10.089,4.567,10.462c0.696,3.814,2.067,19.869,2.125,20.551c0.05,0.578-0.38,1.086-0.956,1.135
					C225.955,221.412,225.925,221.412,225.896,221.412z"/>
			</g>
		</g>
		<g>
			<g>
				<path d="M248.263,217.101c-0.404,0-0.788-0.235-0.96-0.627l-12.526-28.514l-0.021-0.12c-0.428-2.349-1.634-8.73-2.051-10.02
					c-0.386-1.191-2.192-3.283-5.596-4.174c-3.544-0.929-6.452-1.312-6.482-1.316l-0.451-0.058l-0.266-0.372
					c-2.695-3.765-4.086-6.084-4.132-6.894c-0.009-0.191-0.011-0.521-0.014-1.016c-0.005-1.615-0.025-6.525-0.727-7.752
					c-0.513-0.895-1.066-1.373-1.413-1.575c-0.338,1.678-0.555,6.808-0.172,9.432c0.46,3.155,1.008,6.823,1.008,6.823l-2.074,0.311
					c0,0-0.548-3.67-1.008-6.828c-0.264-1.811-0.26-4.561-0.166-6.529c0.21-4.445,0.725-4.83,1.065-5.09
					c0.405-0.303,0.937-0.404,1.497-0.291c1.089,0.225,2.24,1.236,3.082,2.707c0.856,1.496,0.99,5.107,1.005,8.783
					c0.002,0.365,0.003,0.687,0.01,0.852c0.205,0.648,1.902,3.252,3.483,5.482c0.979,0.147,3.412,0.551,6.285,1.303
					c3.97,1.039,6.407,3.54,7.059,5.555c0.519,1.599,1.897,9.079,2.098,10.168l12.426,28.289c0.234,0.527-0.008,1.148-0.537,1.381
					C248.548,217.071,248.403,217.101,248.263,217.101z"/>
			</g>
		</g>
		<g>
			<g>
				<path d="M213.793,184.261c-0.318,0-0.633-0.143-0.839-0.416c-1.006-1.34-3.828-5.01-4.798-5.909
					c-0.452-0.419-0.987-0.87-1.461-1.272c-1.214-1.026-1.685-1.439-1.855-1.891c-0.586-0.865-4.276-4.898-5.267-5.328
					c-0.918-0.398-1.662-1.701-1.659-2.901c0.005-1.228,0.739-2.247,2.019-2.793c2.457-1.052,6.296-1.15,9.705,1.714
					c1.402,1.18,3.999,4.734,4.563,5.516l3.121,2.576c1.012-0.311,3.125-0.804,5.067-0.285c2.447,0.658,6.504,3.202,7.751,4.863
					c0.348,0.461,0.254,1.119-0.209,1.467c-0.463,0.35-1.121,0.254-1.468-0.209c-0.9-1.201-4.474-3.521-6.617-4.093
					c-1.622-0.433-3.691,0.149-4.354,0.412l-0.575,0.228l-4.262-3.512l-0.079-0.113c-0.823-1.147-3.199-4.328-4.288-5.242
					c-2.682-2.256-5.649-2.198-7.533-1.395c-0.693,0.298-0.729,0.654-0.74,0.789c-0.046,0.466,0.27,0.955,0.42,1.069
					c1.414,0.651,6.222,5.628,6.406,6.642c-0.033-0.186-0.112-0.293-0.117-0.297c0.138,0.18,0.823,0.762,1.323,1.182
					c0.491,0.416,1.047,0.885,1.532,1.337c1.286,1.189,4.668,5.675,5.051,6.187c0.348,0.461,0.253,1.119-0.209,1.468
					C214.232,184.193,214.012,184.261,213.793,184.261z"/>
			</g>
		</g>
		<g>
			<g>
				<path d="M195.693,166.328c-0.489,0-0.927-0.346-1.026-0.843l-1.972-9.865l0.073-0.25c0.21-0.709,0.941-1.99,2.358-2.287
					c1.861-0.393,3.55,1.254,4.256,2.284c0.666,0.978,2.438,6.386,2.966,8.017c0.177,0.553-0.125,1.144-0.676,1.32
					c-0.55,0.179-1.143-0.123-1.319-0.676c-1.054-3.262-2.353-6.949-2.704-7.479c-0.523-0.768-1.513-1.537-2.093-1.416
					c-0.356,0.075-0.581,0.412-0.693,0.637l1.858,9.303c0.115,0.569-0.253,1.123-0.821,1.236
					C195.832,166.321,195.763,166.328,195.693,166.328z"/>
			</g>
		</g>
		<g>
			<g>
				<path d="M208.317,166.333c-0.474,0-0.907-0.328-1.018-0.811c-1.024-4.416-2.245-9.338-2.519-9.928
					c-0.058-0.107-0.132-0.254-0.21-0.416c-0.379-0.77-0.848-1.727-2.023-2.088c-0.461-0.145-0.823,0.308-1.008,0.605l1.823,10.299
					c0.1,0.57-0.28,1.115-0.851,1.215c-0.569,0.102-1.113-0.281-1.215-0.85l-1.94-10.962l0.122-0.286
					c0.416-0.969,1.718-2.637,3.689-2.025c2.039,0.631,2.85,2.28,3.284,3.168c0.064,0.129,0.122,0.246,0.178,0.351
					c0.454,0.827,2.047,7.577,2.712,10.443c0.129,0.562-0.221,1.128-0.785,1.257C208.479,166.325,208.398,166.333,208.317,166.333z"
					/>
			</g>
		</g>
	</g>
	<g>
		
			<rect x="236.065" y="206.873" transform="matrix(0.1786 0.9839 -0.9839 0.1786 409.6173 -53.8558)" width="2.001" height="23.076"/>
	</g>
</g>
<g>
	<g>
		<path fill="#FFFFFF" d="M288.664,167.795l0.625,2.313l4.25-4.75l0.75-4.25c0,0,2.313-7.75,2.438-7.938s2.621-1.25,2.621-1.25
			l1.754,0.832v5.62l1.563-1.89l2.25-2.688l2,0.125l1.313,1.449l-1.688,8.738l4.5-3.625l2.313-0.5l0.813,2.274l-5.112,10.351
			l-2.763,4.711l-9.875,7.664l-15.125,5.5l-4.313,15.625l-0.688,7.813l-0.625,5.438h-3.313l-17.188-2.529l-1.563-2.033l2.063-4.625
			l10.125-22.25c0,0,1.487-6.625,1.275-6.813c-0.213-0.188,1.537-5.875,1.537-5.875l5.544-2.75l7.081-2l3.188-4.427l0.438-4.698
			l0.125-5.25c0,0,2.125-2.5,2.313-2.5s1.438-0.438,1.438-0.438l0.875,3.938l-0.125,7.188L288.664,167.795z"/>
	</g>
	<g>
		<g>
			<g>
				<path d="M275.852,221.14c0.539,0,0.997-0.412,1.043-0.958c0.015-0.167,1.421-16.639,2.099-20.354
					c0.843-4.618,2.476-8.522,3.371-8.928c0.684-0.308,3.481-1.247,6.19-2.157c4.583-1.533,7.655-2.574,8.576-3.052
					c1.699-0.872,11.126-9.144,11.803-10.569c0.195-0.41,0.764-1.504,1.482-2.885c5.364-10.326,5.272-10.572,5.026-11.221
					c-0.26-0.697-0.844-1.301-1.557-1.617c-0.602-0.266-1.611-0.468-2.998,0.082c-2.394,0.947-7.764,7.03-8.763,10.421
					c-0.164,0.556-0.409,1.083-0.575,1.412c-2.616,0.812-5.422,1.663-5.793,1.747c-0.557,0.098-0.939,0.619-0.859,1.182
					c0.083,0.572,0.613,0.974,1.187,0.889c0.292-0.039,2.479-0.693,6.498-1.94l0.389-0.122l0.205-0.349
					c0.025-0.044,0.618-1.059,0.959-2.226c0.849-2.883,5.846-8.397,7.526-9.064c0.564-0.225,1.04-0.262,1.376-0.117
					c0.143,0.065,0.248,0.158,0.321,0.244c-0.509,1.443-3.38,6.967-4.805,9.713c-0.719,1.381-1.287,2.476-1.506,2.934
					c-0.732,1.18-9.438,8.883-10.876,9.623c-0.848,0.439-4.97,1.82-8.284,2.93c-3.01,1.009-5.611,1.879-6.39,2.233
					c-2.864,1.296-4.499,10.089-4.568,10.462c-0.696,3.814-2.066,19.869-2.125,20.551c-0.049,0.578,0.381,1.086,0.957,1.135
					C275.792,221.14,275.822,221.14,275.852,221.14z"/>
			</g>
		</g>
		<g>
			<g>
				<path d="M253.483,216.828c0.404,0,0.789-0.235,0.96-0.627l12.526-28.514l0.022-0.12c0.428-2.349,1.634-8.73,2.051-10.021
					c0.385-1.19,2.192-3.282,5.595-4.173c3.545-0.929,6.453-1.312,6.483-1.316l0.451-0.058l0.266-0.372
					c2.695-3.765,4.086-6.084,4.132-6.894c0.009-0.191,0.011-0.521,0.013-1.016c0.006-1.615,0.026-6.525,0.728-7.752
					c0.513-0.895,1.065-1.373,1.413-1.575c0.338,1.679,0.555,6.808,0.172,9.432c-0.46,3.155-1.008,6.823-1.008,6.823l2.073,0.311
					c0,0,0.549-3.67,1.009-6.828c0.264-1.811,0.26-4.561,0.166-6.529c-0.21-4.445-0.725-4.83-1.066-5.09
					c-0.404-0.303-0.936-0.404-1.496-0.291c-1.089,0.225-2.24,1.236-3.082,2.707c-0.856,1.496-0.991,5.107-1.005,8.783
					c-0.002,0.365-0.003,0.687-0.01,0.852c-0.205,0.648-1.902,3.252-3.483,5.482c-0.979,0.147-3.412,0.551-6.285,1.303
					c-3.97,1.039-6.407,3.54-7.059,5.555c-0.519,1.599-1.898,9.079-2.098,10.168l-12.426,28.289
					c-0.234,0.527,0.008,1.148,0.537,1.381C253.199,216.799,253.344,216.828,253.483,216.828z"/>
			</g>
		</g>
		<g>
			<g>
				<path d="M287.954,183.988c0.318,0,0.633-0.143,0.839-0.416c1.006-1.34,3.828-5.01,4.798-5.909
					c0.452-0.419,0.987-0.87,1.461-1.272c1.214-1.026,1.684-1.439,1.855-1.891c0.586-0.865,4.276-4.898,5.267-5.328
					c0.918-0.398,1.662-1.701,1.659-2.901c-0.005-1.228-0.739-2.247-2.019-2.793c-2.457-1.052-6.296-1.15-9.707,1.714
					c-1.4,1.18-3.998,4.734-4.562,5.516l-3.121,2.576c-1.012-0.311-3.125-0.804-5.067-0.285c-2.447,0.658-6.504,3.202-7.751,4.863
					c-0.348,0.461-0.254,1.119,0.209,1.467c0.462,0.35,1.121,0.254,1.468-0.209c0.9-1.201,4.474-3.521,6.616-4.093
					c1.623-0.433,3.692,0.149,4.354,0.412l0.575,0.228l4.262-3.512l0.079-0.113c0.823-1.147,3.199-4.328,4.288-5.242
					c2.68-2.256,5.649-2.198,7.533-1.395c0.693,0.298,0.729,0.654,0.74,0.789c0.045,0.466-0.27,0.955-0.42,1.069
					c-1.414,0.651-6.222,5.628-6.406,6.642c0.033-0.186,0.112-0.293,0.117-0.297c-0.138,0.18-0.823,0.762-1.323,1.182
					c-0.491,0.416-1.048,0.885-1.532,1.337c-1.286,1.189-4.668,5.675-5.051,6.187c-0.348,0.461-0.253,1.119,0.209,1.468
					C287.515,183.921,287.735,183.988,287.954,183.988z"/>
			</g>
		</g>
		<g>
			<g>
				<path d="M306.053,166.056c0.49,0,0.928-0.346,1.027-0.843l1.972-9.865l-0.073-0.25c-0.21-0.709-0.941-1.99-2.358-2.287
					c-1.861-0.393-3.551,1.254-4.256,2.284c-0.666,0.978-2.438,6.386-2.966,8.017c-0.178,0.553,0.125,1.144,0.676,1.32
					c0.55,0.179,1.143-0.123,1.319-0.676c1.054-3.262,2.353-6.949,2.702-7.479c0.525-0.768,1.514-1.537,2.095-1.416
					c0.356,0.075,0.581,0.412,0.693,0.637l-1.858,9.303c-0.115,0.569,0.252,1.123,0.82,1.236
					C305.915,166.049,305.983,166.056,306.053,166.056z"/>
			</g>
		</g>
		<g>
			<g>
				<path d="M293.429,166.061c0.474,0,0.908-0.328,1.019-0.811c1.023-4.416,2.244-9.338,2.519-9.928
					c0.058-0.107,0.132-0.254,0.21-0.416c0.379-0.77,0.848-1.727,2.023-2.088c0.461-0.145,0.823,0.308,1.008,0.605l-1.823,10.299
					c-0.1,0.57,0.28,1.115,0.85,1.215c0.569,0.102,1.114-0.281,1.216-0.85l1.938-10.962l-0.12-0.286
					c-0.416-0.969-1.718-2.637-3.689-2.025c-2.039,0.631-2.85,2.28-3.284,3.168c-0.064,0.129-0.122,0.246-0.178,0.351
					c-0.454,0.827-2.048,7.577-2.712,10.443c-0.13,0.562,0.221,1.128,0.785,1.257C293.269,166.053,293.349,166.061,293.429,166.061z
					"/>
			</g>
		</g>
	</g>
	<g>
		
			<rect x="253.144" y="217.138" transform="matrix(0.9839 0.1786 -0.1786 0.9839 43.2119 -43.7621)" width="23.076" height="2.001"/>
	</g>
</g>
</svg>
